<mxfile host="app.diagrams.net" modified="2023-10-17T11:48:13.086Z" agent="Mozilla/5.0 (Windows NT 10.0; Win64; x64) AppleWebKit/537.36 (KHTML, like Gecko) Chrome/118.0.0.0 Safari/537.36 Edg/118.0.2088.46" etag="BKfvFWQ163uaU_hkWGce" version="22.0.4" type="device">
  <diagram name="Page-1" id="c4acf3e9-155e-7222-9cf6-157b1a14988f">
    <mxGraphModel dx="620" dy="946" grid="1" gridSize="10" guides="1" tooltips="1" connect="1" arrows="1" fold="1" page="1" pageScale="1" pageWidth="850" pageHeight="1100" background="none" math="0" shadow="0">
      <root>
        <mxCell id="0" />
        <mxCell id="1" parent="0" />
        <mxCell id="wNpKbKv7Wcfl77VTRZFp-8" style="edgeStyle=orthogonalEdgeStyle;rounded=0;orthogonalLoop=1;jettySize=auto;html=1;exitX=0.5;exitY=1;exitDx=0;exitDy=0;entryX=0.5;entryY=0;entryDx=0;entryDy=0;" edge="1" parent="1" source="17acba5748e5396b-20" target="17acba5748e5396b-30">
          <mxGeometry relative="1" as="geometry" />
        </mxCell>
        <mxCell id="17acba5748e5396b-20" value="&lt;b&gt;Player&lt;/b&gt;" style="swimlane;html=1;fontStyle=0;childLayout=stackLayout;horizontal=1;startSize=26;fillColor=none;horizontalStack=0;resizeParent=1;resizeLast=0;collapsible=1;marginBottom=0;swimlaneFillColor=#ffffff;rounded=0;shadow=0;comic=0;labelBackgroundColor=none;strokeWidth=1;fontFamily=Verdana;fontSize=10;align=center;" parent="1" vertex="1">
          <mxGeometry x="350" y="42" width="160" height="146" as="geometry" />
        </mxCell>
        <mxCell id="17acba5748e5396b-21" value="# fr.helloworld&lt;br&gt;- hand: Hand&amp;nbsp;" style="text;html=1;strokeColor=none;fillColor=none;align=left;verticalAlign=top;spacingLeft=4;spacingRight=4;whiteSpace=wrap;overflow=hidden;rotatable=0;points=[[0,0.5],[1,0.5]];portConstraint=eastwest;" parent="17acba5748e5396b-20" vertex="1">
          <mxGeometry y="26" width="160" height="34" as="geometry" />
        </mxCell>
        <mxCell id="wNpKbKv7Wcfl77VTRZFp-44" value="" style="line;strokeWidth=1;fillColor=none;align=left;verticalAlign=middle;spacingTop=-1;spacingLeft=3;spacingRight=3;rotatable=0;labelPosition=right;points=[];portConstraint=eastwest;strokeColor=inherit;" vertex="1" parent="17acba5748e5396b-20">
          <mxGeometry y="60" width="160" height="8" as="geometry" />
        </mxCell>
        <mxCell id="17acba5748e5396b-24" value="+ Player()" style="text;html=1;strokeColor=none;fillColor=none;align=left;verticalAlign=top;spacingLeft=4;spacingRight=4;whiteSpace=wrap;overflow=hidden;rotatable=0;points=[[0,0.5],[1,0.5]];portConstraint=eastwest;" parent="17acba5748e5396b-20" vertex="1">
          <mxGeometry y="68" width="160" height="26" as="geometry" />
        </mxCell>
        <mxCell id="17acba5748e5396b-26" value="+ getHand(): Hand&lt;br&gt;+ setHand(Hand): Hand" style="text;html=1;strokeColor=none;fillColor=none;align=left;verticalAlign=top;spacingLeft=4;spacingRight=4;whiteSpace=wrap;overflow=hidden;rotatable=0;points=[[0,0.5],[1,0.5]];portConstraint=eastwest;" parent="17acba5748e5396b-20" vertex="1">
          <mxGeometry y="94" width="160" height="52" as="geometry" />
        </mxCell>
        <mxCell id="wNpKbKv7Wcfl77VTRZFp-12" style="edgeStyle=orthogonalEdgeStyle;rounded=0;orthogonalLoop=1;jettySize=auto;html=1;exitX=0.5;exitY=1;exitDx=0;exitDy=0;entryX=0.5;entryY=0;entryDx=0;entryDy=0;" edge="1" parent="1" source="17acba5748e5396b-30" target="wNpKbKv7Wcfl77VTRZFp-11">
          <mxGeometry relative="1" as="geometry" />
        </mxCell>
        <mxCell id="17acba5748e5396b-30" value="&lt;b&gt;Hand&lt;/b&gt;" style="swimlane;html=1;fontStyle=0;childLayout=stackLayout;horizontal=1;startSize=26;fillColor=none;horizontalStack=0;resizeParent=1;resizeLast=0;collapsible=1;marginBottom=0;swimlaneFillColor=#ffffff;rounded=0;shadow=0;comic=0;labelBackgroundColor=none;strokeWidth=1;fontFamily=Verdana;fontSize=10;align=center;" parent="1" vertex="1">
          <mxGeometry x="350" y="210" width="180" height="290" as="geometry" />
        </mxCell>
        <mxCell id="17acba5748e5396b-31" value="# fr.helloworld&lt;br&gt;- cards: ArrayList&amp;lt;Card&amp;gt;&lt;br&gt;- value: int" style="text;html=1;strokeColor=none;fillColor=none;align=left;verticalAlign=top;spacingLeft=4;spacingRight=4;whiteSpace=wrap;overflow=hidden;rotatable=0;points=[[0,0.5],[1,0.5]];portConstraint=eastwest;" parent="17acba5748e5396b-30" vertex="1">
          <mxGeometry y="26" width="180" height="54" as="geometry" />
        </mxCell>
        <mxCell id="wNpKbKv7Wcfl77VTRZFp-45" value="" style="line;strokeWidth=1;fillColor=none;align=left;verticalAlign=middle;spacingTop=-1;spacingLeft=3;spacingRight=3;rotatable=0;labelPosition=right;points=[];portConstraint=eastwest;strokeColor=inherit;" vertex="1" parent="17acba5748e5396b-30">
          <mxGeometry y="80" width="180" height="8" as="geometry" />
        </mxCell>
        <mxCell id="17acba5748e5396b-32" value="+ Hand()" style="text;html=1;strokeColor=none;fillColor=none;align=left;verticalAlign=top;spacingLeft=4;spacingRight=4;whiteSpace=wrap;overflow=hidden;rotatable=0;points=[[0,0.5],[1,0.5]];portConstraint=eastwest;" parent="17acba5748e5396b-30" vertex="1">
          <mxGeometry y="88" width="180" height="26" as="geometry" />
        </mxCell>
        <mxCell id="17acba5748e5396b-33" value="+ generatedCard(): void" style="text;html=1;strokeColor=none;fillColor=none;align=left;verticalAlign=top;spacingLeft=4;spacingRight=4;whiteSpace=wrap;overflow=hidden;rotatable=0;points=[[0,0.5],[1,0.5]];portConstraint=eastwest;" parent="17acba5748e5396b-30" vertex="1">
          <mxGeometry y="114" width="180" height="26" as="geometry" />
        </mxCell>
        <mxCell id="wNpKbKv7Wcfl77VTRZFp-3" value="+ addCard(Card): void" style="text;strokeColor=none;fillColor=none;align=left;verticalAlign=top;spacingLeft=4;spacingRight=4;overflow=hidden;rotatable=0;points=[[0,0.5],[1,0.5]];portConstraint=eastwest;whiteSpace=wrap;html=1;" vertex="1" parent="17acba5748e5396b-30">
          <mxGeometry y="140" width="180" height="26" as="geometry" />
        </mxCell>
        <mxCell id="wNpKbKv7Wcfl77VTRZFp-7" value="+ getCards(): ArrayList&amp;lt;Card&amp;gt;" style="text;strokeColor=none;fillColor=none;align=left;verticalAlign=top;spacingLeft=4;spacingRight=4;overflow=hidden;rotatable=0;points=[[0,0.5],[1,0.5]];portConstraint=eastwest;whiteSpace=wrap;html=1;" vertex="1" parent="17acba5748e5396b-30">
          <mxGeometry y="166" width="180" height="26" as="geometry" />
        </mxCell>
        <mxCell id="wNpKbKv7Wcfl77VTRZFp-6" value="+ setCards(ArrayList&amp;lt;Card&amp;gt;): void" style="text;strokeColor=none;fillColor=none;align=left;verticalAlign=top;spacingLeft=4;spacingRight=4;overflow=hidden;rotatable=0;points=[[0,0.5],[1,0.5]];portConstraint=eastwest;whiteSpace=wrap;html=1;" vertex="1" parent="17acba5748e5396b-30">
          <mxGeometry y="192" width="180" height="36" as="geometry" />
        </mxCell>
        <mxCell id="wNpKbKv7Wcfl77VTRZFp-5" value="+ getValue(): int" style="text;strokeColor=none;fillColor=none;align=left;verticalAlign=top;spacingLeft=4;spacingRight=4;overflow=hidden;rotatable=0;points=[[0,0.5],[1,0.5]];portConstraint=eastwest;whiteSpace=wrap;html=1;" vertex="1" parent="17acba5748e5396b-30">
          <mxGeometry y="228" width="180" height="26" as="geometry" />
        </mxCell>
        <mxCell id="wNpKbKv7Wcfl77VTRZFp-4" value="+ setValue(int): void" style="text;strokeColor=none;fillColor=none;align=left;verticalAlign=top;spacingLeft=4;spacingRight=4;overflow=hidden;rotatable=0;points=[[0,0.5],[1,0.5]];portConstraint=eastwest;whiteSpace=wrap;html=1;" vertex="1" parent="17acba5748e5396b-30">
          <mxGeometry y="254" width="180" height="26" as="geometry" />
        </mxCell>
        <mxCell id="5d2195bd80daf111-21" style="edgeStyle=orthogonalEdgeStyle;rounded=0;html=1;labelBackgroundColor=none;startFill=0;endArrow=open;endFill=0;endSize=10;fontFamily=Verdana;fontSize=10;dashed=1;" parent="1" source="5d2195bd80daf111-18" target="17acba5748e5396b-20" edge="1">
          <mxGeometry relative="1" as="geometry" />
        </mxCell>
        <mxCell id="wNpKbKv7Wcfl77VTRZFp-10" style="edgeStyle=orthogonalEdgeStyle;rounded=0;orthogonalLoop=1;jettySize=auto;html=1;exitX=0.5;exitY=1;exitDx=0;exitDy=0;entryX=0.5;entryY=0;entryDx=0;entryDy=0;" edge="1" parent="1" source="5d2195bd80daf111-18" target="wNpKbKv7Wcfl77VTRZFp-9">
          <mxGeometry relative="1" as="geometry" />
        </mxCell>
        <mxCell id="5d2195bd80daf111-18" value="&lt;p style=&quot;margin:0px;margin-top:4px;text-align:center;&quot;&gt;&lt;b&gt;Main&lt;/b&gt;&lt;/p&gt;&lt;hr size=&quot;1&quot;&gt;&lt;p style=&quot;margin:0px;margin-left:4px;&quot;&gt;# fr.helloworld&lt;/p&gt;&lt;hr size=&quot;1&quot;&gt;&lt;p style=&quot;margin:0px;margin-left:4px;&quot;&gt;+ main(String[]): void&lt;br&gt;+ bustedCheck(Player, Player): boolean&lt;/p&gt;&lt;p style=&quot;margin:0px;margin-left:4px;&quot;&gt;+ resultCheck(Player, Player): boolean&lt;br&gt;&lt;/p&gt;" style="verticalAlign=top;align=left;overflow=fill;fontSize=12;fontFamily=Helvetica;html=1;rounded=0;shadow=0;comic=0;labelBackgroundColor=none;strokeWidth=1" parent="1" vertex="1">
          <mxGeometry x="60" y="87" width="240" height="140" as="geometry" />
        </mxCell>
        <mxCell id="wNpKbKv7Wcfl77VTRZFp-9" value="java.util.*&lt;br&gt;java.io.*" style="html=1;whiteSpace=wrap;" vertex="1" parent="1">
          <mxGeometry x="170" y="270" width="110" height="50" as="geometry" />
        </mxCell>
        <mxCell id="wNpKbKv7Wcfl77VTRZFp-11" value="java.util.ArrayList" style="html=1;whiteSpace=wrap;" vertex="1" parent="1">
          <mxGeometry x="375" y="525" width="110" height="50" as="geometry" />
        </mxCell>
        <mxCell id="wNpKbKv7Wcfl77VTRZFp-13" value="&lt;b&gt;Card&lt;/b&gt;" style="swimlane;html=1;fontStyle=0;childLayout=stackLayout;horizontal=1;startSize=26;fillColor=none;horizontalStack=0;resizeParent=1;resizeLast=0;collapsible=1;marginBottom=0;swimlaneFillColor=#ffffff;rounded=0;shadow=0;comic=0;labelBackgroundColor=none;strokeWidth=1;fontFamily=Verdana;fontSize=10;align=center;" vertex="1" parent="1">
          <mxGeometry x="570" y="220" width="180" height="280" as="geometry" />
        </mxCell>
        <mxCell id="wNpKbKv7Wcfl77VTRZFp-14" value="# fr.helloworld&lt;br&gt;- Type: enum&lt;br&gt;- type: Type&lt;br&gt;- value: int" style="text;html=1;strokeColor=none;fillColor=none;align=left;verticalAlign=top;spacingLeft=4;spacingRight=4;whiteSpace=wrap;overflow=hidden;rotatable=0;points=[[0,0.5],[1,0.5]];portConstraint=eastwest;" vertex="1" parent="wNpKbKv7Wcfl77VTRZFp-13">
          <mxGeometry y="26" width="180" height="74" as="geometry" />
        </mxCell>
        <mxCell id="wNpKbKv7Wcfl77VTRZFp-46" value="" style="line;strokeWidth=1;fillColor=none;align=left;verticalAlign=middle;spacingTop=-1;spacingLeft=3;spacingRight=3;rotatable=0;labelPosition=right;points=[];portConstraint=eastwest;strokeColor=inherit;" vertex="1" parent="wNpKbKv7Wcfl77VTRZFp-13">
          <mxGeometry y="100" width="180" height="8" as="geometry" />
        </mxCell>
        <mxCell id="wNpKbKv7Wcfl77VTRZFp-15" value="+ Card()&lt;br&gt;+ Card(Type)" style="text;html=1;strokeColor=none;fillColor=none;align=left;verticalAlign=top;spacingLeft=4;spacingRight=4;whiteSpace=wrap;overflow=hidden;rotatable=0;points=[[0,0.5],[1,0.5]];portConstraint=eastwest;" vertex="1" parent="wNpKbKv7Wcfl77VTRZFp-13">
          <mxGeometry y="108" width="180" height="40" as="geometry" />
        </mxCell>
        <mxCell id="wNpKbKv7Wcfl77VTRZFp-16" value="+ getRandomType(): void" style="text;html=1;strokeColor=none;fillColor=none;align=left;verticalAlign=top;spacingLeft=4;spacingRight=4;whiteSpace=wrap;overflow=hidden;rotatable=0;points=[[0,0.5],[1,0.5]];portConstraint=eastwest;" vertex="1" parent="wNpKbKv7Wcfl77VTRZFp-13">
          <mxGeometry y="148" width="180" height="26" as="geometry" />
        </mxCell>
        <mxCell id="wNpKbKv7Wcfl77VTRZFp-17" value="+ getType(): Type" style="text;strokeColor=none;fillColor=none;align=left;verticalAlign=top;spacingLeft=4;spacingRight=4;overflow=hidden;rotatable=0;points=[[0,0.5],[1,0.5]];portConstraint=eastwest;whiteSpace=wrap;html=1;" vertex="1" parent="wNpKbKv7Wcfl77VTRZFp-13">
          <mxGeometry y="174" width="180" height="26" as="geometry" />
        </mxCell>
        <mxCell id="wNpKbKv7Wcfl77VTRZFp-18" value="+ setType(Type): void" style="text;strokeColor=none;fillColor=none;align=left;verticalAlign=top;spacingLeft=4;spacingRight=4;overflow=hidden;rotatable=0;points=[[0,0.5],[1,0.5]];portConstraint=eastwest;whiteSpace=wrap;html=1;" vertex="1" parent="wNpKbKv7Wcfl77VTRZFp-13">
          <mxGeometry y="200" width="180" height="26" as="geometry" />
        </mxCell>
        <mxCell id="wNpKbKv7Wcfl77VTRZFp-19" value="+ getValue(): int" style="text;strokeColor=none;fillColor=none;align=left;verticalAlign=top;spacingLeft=4;spacingRight=4;overflow=hidden;rotatable=0;points=[[0,0.5],[1,0.5]];portConstraint=eastwest;whiteSpace=wrap;html=1;" vertex="1" parent="wNpKbKv7Wcfl77VTRZFp-13">
          <mxGeometry y="226" width="180" height="22" as="geometry" />
        </mxCell>
        <mxCell id="wNpKbKv7Wcfl77VTRZFp-21" value="+ setValue(): void" style="text;strokeColor=none;fillColor=none;align=left;verticalAlign=top;spacingLeft=4;spacingRight=4;overflow=hidden;rotatable=0;points=[[0,0.5],[1,0.5]];portConstraint=eastwest;whiteSpace=wrap;html=1;" vertex="1" parent="wNpKbKv7Wcfl77VTRZFp-13">
          <mxGeometry y="248" width="180" height="26" as="geometry" />
        </mxCell>
        <mxCell id="wNpKbKv7Wcfl77VTRZFp-22" value="&lt;b&gt;Dealer&lt;/b&gt;" style="swimlane;html=1;fontStyle=0;childLayout=stackLayout;horizontal=1;startSize=26;fillColor=none;horizontalStack=0;resizeParent=1;resizeLast=0;collapsible=1;marginBottom=0;swimlaneFillColor=#ffffff;rounded=0;shadow=0;comic=0;labelBackgroundColor=none;strokeWidth=1;fontFamily=Verdana;fontSize=10;align=center;" vertex="1" parent="1">
          <mxGeometry x="590" y="72" width="160" height="84" as="geometry" />
        </mxCell>
        <mxCell id="wNpKbKv7Wcfl77VTRZFp-23" value="# fr.helloworld&amp;nbsp;" style="text;html=1;strokeColor=none;fillColor=none;align=left;verticalAlign=top;spacingLeft=4;spacingRight=4;whiteSpace=wrap;overflow=hidden;rotatable=0;points=[[0,0.5],[1,0.5]];portConstraint=eastwest;" vertex="1" parent="wNpKbKv7Wcfl77VTRZFp-22">
          <mxGeometry y="26" width="160" height="24" as="geometry" />
        </mxCell>
        <mxCell id="wNpKbKv7Wcfl77VTRZFp-47" value="" style="line;strokeWidth=1;fillColor=none;align=left;verticalAlign=middle;spacingTop=-1;spacingLeft=3;spacingRight=3;rotatable=0;labelPosition=right;points=[];portConstraint=eastwest;strokeColor=inherit;" vertex="1" parent="wNpKbKv7Wcfl77VTRZFp-22">
          <mxGeometry y="50" width="160" height="8" as="geometry" />
        </mxCell>
        <mxCell id="wNpKbKv7Wcfl77VTRZFp-24" value="+ Dealer()" style="text;html=1;strokeColor=none;fillColor=none;align=left;verticalAlign=top;spacingLeft=4;spacingRight=4;whiteSpace=wrap;overflow=hidden;rotatable=0;points=[[0,0.5],[1,0.5]];portConstraint=eastwest;" vertex="1" parent="wNpKbKv7Wcfl77VTRZFp-22">
          <mxGeometry y="58" width="160" height="26" as="geometry" />
        </mxCell>
        <mxCell id="wNpKbKv7Wcfl77VTRZFp-27" style="edgeStyle=orthogonalEdgeStyle;rounded=0;orthogonalLoop=1;jettySize=auto;html=1;exitX=1;exitY=0.5;exitDx=0;exitDy=0;entryX=0;entryY=0.5;entryDx=0;entryDy=0;" edge="1" parent="1" source="17acba5748e5396b-24" target="wNpKbKv7Wcfl77VTRZFp-24">
          <mxGeometry relative="1" as="geometry" />
        </mxCell>
        <mxCell id="wNpKbKv7Wcfl77VTRZFp-30" style="edgeStyle=orthogonalEdgeStyle;rounded=0;orthogonalLoop=1;jettySize=auto;html=1;exitX=1;exitY=0.5;exitDx=0;exitDy=0;entryX=0;entryY=0.5;entryDx=0;entryDy=0;" edge="1" parent="1" source="wNpKbKv7Wcfl77VTRZFp-3" target="wNpKbKv7Wcfl77VTRZFp-16">
          <mxGeometry relative="1" as="geometry" />
        </mxCell>
        <mxCell id="wNpKbKv7Wcfl77VTRZFp-31" value="FileNotFoundException" style="html=1;whiteSpace=wrap;" vertex="1" parent="1">
          <mxGeometry x="60" y="335" width="160" height="50" as="geometry" />
        </mxCell>
        <mxCell id="wNpKbKv7Wcfl77VTRZFp-35" style="edgeStyle=orthogonalEdgeStyle;rounded=0;orthogonalLoop=1;jettySize=auto;html=1;exitX=0.25;exitY=1;exitDx=0;exitDy=0;entryX=0.375;entryY=0.1;entryDx=0;entryDy=0;entryPerimeter=0;" edge="1" parent="1" source="5d2195bd80daf111-18" target="wNpKbKv7Wcfl77VTRZFp-31">
          <mxGeometry relative="1" as="geometry" />
        </mxCell>
        <mxCell id="wNpKbKv7Wcfl77VTRZFp-36" value="&amp;lt;&amp;lt;throws&amp;gt;&amp;gt;" style="text;html=1;align=center;verticalAlign=middle;resizable=0;points=[];autosize=1;strokeColor=none;fillColor=none;" vertex="1" parent="1">
          <mxGeometry x="40" y="290" width="90" height="30" as="geometry" />
        </mxCell>
        <mxCell id="wNpKbKv7Wcfl77VTRZFp-37" value="java.lang.Exception" style="html=1;whiteSpace=wrap;" vertex="1" parent="1">
          <mxGeometry x="60" y="410" width="130" height="50" as="geometry" />
        </mxCell>
        <mxCell id="wNpKbKv7Wcfl77VTRZFp-39" style="edgeStyle=orthogonalEdgeStyle;rounded=0;orthogonalLoop=1;jettySize=auto;html=1;exitX=0.5;exitY=1;exitDx=0;exitDy=0;entryX=0.609;entryY=0.013;entryDx=0;entryDy=0;entryPerimeter=0;" edge="1" parent="1" source="wNpKbKv7Wcfl77VTRZFp-31" target="wNpKbKv7Wcfl77VTRZFp-37">
          <mxGeometry relative="1" as="geometry" />
        </mxCell>
        <mxCell id="wNpKbKv7Wcfl77VTRZFp-42" style="edgeStyle=orthogonalEdgeStyle;rounded=0;orthogonalLoop=1;jettySize=auto;html=1;exitX=1;exitY=0.5;exitDx=0;exitDy=0;entryX=0;entryY=0.5;entryDx=0;entryDy=0;" edge="1" parent="1" source="wNpKbKv7Wcfl77VTRZFp-40" target="wNpKbKv7Wcfl77VTRZFp-41">
          <mxGeometry relative="1" as="geometry" />
        </mxCell>
        <mxCell id="wNpKbKv7Wcfl77VTRZFp-40" value="&lt;p style=&quot;margin:0px;margin-top:4px;text-align:center;&quot;&gt;&lt;b&gt;Keyboard&lt;/b&gt;&lt;/p&gt;&lt;hr size=&quot;1&quot;&gt;&lt;p style=&quot;margin:0px;margin-left:4px;&quot;&gt;# fr.helloworld&lt;/p&gt;&lt;p style=&quot;margin:0px;margin-left:4px;&quot;&gt;- keyboard: Scanner&lt;/p&gt;&lt;p style=&quot;margin:0px;margin-left:4px;&quot;&gt;- inputString: String&lt;/p&gt;&lt;p style=&quot;margin:0px;margin-left:4px;&quot;&gt;- character: char&lt;/p&gt;&lt;p style=&quot;margin:0px;margin-left:4px;&quot;&gt;- number: int&lt;/p&gt;&lt;p style=&quot;margin:0px;margin-left:4px;&quot;&gt;- doubleNumber: double&lt;/p&gt;&lt;p style=&quot;margin:0px;margin-left:4px;&quot;&gt;- bool: boolean&lt;/p&gt;&lt;hr size=&quot;1&quot;&gt;&lt;p style=&quot;margin:0px;margin-left:4px;&quot;&gt;+ Keyboard()&lt;br&gt;+ enterToContinue(): void&lt;/p&gt;&lt;p style=&quot;margin:0px;margin-left:4px;&quot;&gt;+ getKeyboard(): Scanner&lt;br&gt;&lt;/p&gt;&lt;p style=&quot;margin:0px;margin-left:4px;&quot;&gt;+ setKeyboard(Scanner): void&lt;/p&gt;&lt;p style=&quot;margin:0px;margin-left:4px;&quot;&gt;+ getString(): String&lt;/p&gt;&lt;p style=&quot;margin:0px;margin-left:4px;&quot;&gt;+ getString(String): String&lt;/p&gt;&lt;p style=&quot;margin:0px;margin-left:4px;&quot;&gt;+ setString(String): void&lt;/p&gt;&lt;p style=&quot;margin:0px;margin-left:4px;&quot;&gt;+ getCharacter(String): char&lt;/p&gt;&lt;p style=&quot;margin:0px;margin-left:4px;&quot;&gt;+ getCharacter(char): char&lt;/p&gt;&lt;p style=&quot;margin:0px;margin-left:4px;&quot;&gt;+ setCharacter(char): void&lt;/p&gt;&lt;p style=&quot;margin:0px;margin-left:4px;&quot;&gt;+ getInt(String): int&lt;/p&gt;&lt;p style=&quot;margin:0px;margin-left:4px;&quot;&gt;+ setInt(int): void&lt;/p&gt;&lt;p style=&quot;margin:0px;margin-left:4px;&quot;&gt;+ getDoubleNumber(): double&lt;/p&gt;&lt;p style=&quot;margin:0px;margin-left:4px;&quot;&gt;+ setDoubleNumber(double): void&lt;/p&gt;&lt;p style=&quot;margin:0px;margin-left:4px;&quot;&gt;+ getBool(String): boolean&lt;/p&gt;&lt;p style=&quot;margin:0px;margin-left:4px;&quot;&gt;+ setBool(boolean): void&lt;/p&gt;" style="verticalAlign=top;align=left;overflow=fill;fontSize=12;fontFamily=Helvetica;html=1;rounded=0;shadow=0;comic=0;labelBackgroundColor=none;strokeWidth=1" vertex="1" parent="1">
          <mxGeometry x="60" y="510" width="240" height="410" as="geometry" />
        </mxCell>
        <mxCell id="wNpKbKv7Wcfl77VTRZFp-41" value="java.io.BufferedReader&lt;br&gt;java.io.FileReader&lt;br&gt;java.io.IOException&lt;br&gt;java.io.InputStreamReader&lt;br&gt;java.util.Scanner" style="html=1;whiteSpace=wrap;" vertex="1" parent="1">
          <mxGeometry x="350" y="665" width="170" height="100" as="geometry" />
        </mxCell>
        <mxCell id="wNpKbKv7Wcfl77VTRZFp-48" style="edgeStyle=orthogonalEdgeStyle;rounded=0;orthogonalLoop=1;jettySize=auto;html=1;exitX=1;exitY=1;exitDx=0;exitDy=0;entryX=0.788;entryY=0.002;entryDx=0;entryDy=0;entryPerimeter=0;" edge="1" parent="1" source="5d2195bd80daf111-18" target="wNpKbKv7Wcfl77VTRZFp-40">
          <mxGeometry relative="1" as="geometry" />
        </mxCell>
      </root>
    </mxGraphModel>
  </diagram>
</mxfile>
